<svg width="180" height="180" viewBox="0 0 180 180" xmlns="http://www.w3.org/2000/svg">
  <defs>
    <linearGradient id="bg" x1="0%" y1="0%" x2="100%" y2="100%">
      <stop offset="0%" style="stop-color:#8B5CF6;stop-opacity:1" />
      <stop offset="100%" style="stop-color:#EC4899;stop-opacity:1" />
    </linearGradient>
  </defs>
  <rect width="180" height="180" rx="28" ry="28" fill="url(#bg)" />
  <g transform="translate(45, 45)">
    <rect x="0" y="0" width="90" height="112" rx="8" ry="8" fill="white" stroke="#E2E8F0" stroke-width="2" />
    <rect x="8" y="8" width="74" height="28" rx="4" ry="4" fill="#1E293B" />
    <text x="45" y="26" text-anchor="middle" fill="#10B981" font-family="monospace" font-size="8" font-weight="bold">¥8888</text>
    <g fill="#F1F5F9" stroke="#E2E8F0" stroke-width="1">
      <rect x="8" y="45" width="16" height="14" rx="2" />
      <rect x="30" y="45" width="16" height="14" rx="2" />
      <rect x="52" y="45" width="16" height="14" rx="2" />
      <rect x="74" y="45" width="8" height="14" rx="2" />
      <rect x="8" y="65" width="16" height="14" rx="2" />
      <rect x="30" y="65" width="16" height="14" rx="2" />
      <rect x="52" y="65" width="16" height="14" rx="2" />
      <rect x="74" y="65" width="8" height="14" rx="2" />
      <rect x="8" y="85" width="16" height="14" rx="2" />
      <rect x="30" y="85" width="16" height="14" rx="2" />
      <rect x="52" y="85" width="16" height="14" rx="2" />
      <rect x="74" y="85" width="8" height="19" rx="2" />
    </g>
  </g>
</svg>