<svg width="512" height="512" viewBox="0 0 512 512" xmlns="http://www.w3.org/2000/svg">
  <!-- 背景渐变 -->
  <defs>
    <linearGradient id="bg" x1="0%" y1="0%" x2="100%" y2="100%">
      <stop offset="0%" style="stop-color:#8B5CF6;stop-opacity:1" />
      <stop offset="100%" style="stop-color:#EC4899;stop-opacity:1" />
    </linearGradient>
    <linearGradient id="icon" x1="0%" y1="0%" x2="100%" y2="100%">
      <stop offset="0%" style="stop-color:#FFFFFF;stop-opacity:1" />
      <stop offset="100%" style="stop-color:#F8FAFC;stop-opacity:1" />
    </linearGradient>
  </defs>
  
  <!-- 背景圆角矩形 -->
  <rect width="512" height="512" rx="80" ry="80" fill="url(#bg)" />
  
  <!-- 薪资计算器图标 -->
  <g transform="translate(128, 128)">
    <!-- 计算器主体 -->
    <rect x="0" y="0" width="256" height="320" rx="24" ry="24" fill="url(#icon)" stroke="#E2E8F0" stroke-width="4" />
    
    <!-- 显示屏 -->
    <rect x="24" y="24" width="208" height="80" rx="12" ry="12" fill="#1E293B" />
    
    <!-- 显示文字 -->
    <text x="128" y="75" text-anchor="middle" fill="#10B981" font-family="monospace" font-size="24" font-weight="bold">¥8888</text>
    
    <!-- 按钮网格 -->
    <g fill="#F1F5F9" stroke="#E2E8F0" stroke-width="2">
      <!-- 第一行 -->
      <rect x="24" y="128" width="48" height="40" rx="8" />
      <rect x="88" y="128" width="48" height="40" rx="8" />
      <rect x="152" y="128" width="48" height="40" rx="8" />
      <rect x="216" y="128" width="16" height="40" rx="8" />
      
      <!-- 第二行 -->
      <rect x="24" y="184" width="48" height="40" rx="8" />
      <rect x="88" y="184" width="48" height="40" rx="8" />
      <rect x="152" y="184" width="48" height="40" rx="8" />
      <rect x="216" y="184" width="16" height="40" rx="8" />
      
      <!-- 第三行 -->
      <rect x="24" y="240" width="48" height="40" rx="8" />
      <rect x="88" y="240" width="48" height="40" rx="8" />
      <rect x="152" y="240" width="48" height="40" rx="8" />
      <rect x="216" y="240" width="16" height="56" rx="8" />
    </g>
    
    <!-- 按钮标签 -->
    <g fill="#64748B" font-family="Arial" font-size="14" text-anchor="middle">
      <text x="48" y="152">7</text>
      <text x="112" y="152">8</text>
      <text x="176" y="152">9</text>
      <text x="48" y="208">4</text>
      <text x="112" y="208">5</text>
      <text x="176" y="208">6</text>
      <text x="48" y="264">1</text>
      <text x="112" y="264">2</text>
      <text x="176" y="264">3</text>
      <text x="224" y="264">=</text>
    </g>
  </g>
</svg>